# Blender v2.82 (sub 7) OBJ File: 'Egypt Environment.blend'
# www.blender.org
mtllib Bent Pyramid.mtl
o Bent_Pyramid_Cube.020
v -171.460007 1.748267 -21.426012
v -169.443832 5.397844 -23.442181
v -171.460007 1.748267 -26.099257
v -169.443832 5.397844 -24.083088
v -166.786758 1.748267 -21.426012
v -168.802933 5.397844 -23.442181
v -166.786758 1.748267 -26.099257
v -168.802933 5.397844 -24.083088
v -170.948166 3.573055 -21.937845
v -170.948166 3.573055 -25.587423
v -167.298599 3.573055 -25.587423
v -167.298599 3.573055 -21.937845
v -171.512131 1.748267 -26.151386
v -171.512131 1.748267 -21.373882
v -166.734634 1.748267 -26.151386
v -166.734634 1.748267 -21.373882
v -170.959457 3.536560 -25.598701
v -167.287308 3.536560 -25.598701
v -167.287308 3.536560 -21.926567
v -170.959457 3.536560 -21.926567
v -170.918091 3.609551 -21.967932
v -170.918091 3.609551 -25.557337
v -167.328674 3.609551 -25.557337
v -167.328674 3.609551 -21.967932
v -171.512131 1.748267 -21.445545
v -169.443832 5.397844 -23.451794
v -166.734634 1.748267 -21.445545
v -168.802933 5.397844 -23.451794
v -167.298599 3.573055 -21.992590
v -170.948166 3.573055 -21.992590
v -171.460007 1.748267 -21.496111
v -166.786758 1.748267 -21.496111
v -170.959457 3.536560 -21.981647
v -167.287308 3.536560 -21.981647
v -167.328674 3.609551 -22.021772
v -170.918091 3.609551 -22.021772
v -171.440475 1.748267 -26.151386
v -169.434219 5.397844 -24.083088
v -171.440475 1.748267 -21.373882
v -169.434219 5.397844 -23.442181
v -170.893433 3.573055 -21.937845
v -170.893433 3.573055 -25.587423
v -171.389908 1.748267 -26.099257
v -171.389908 1.748267 -21.426012
v -170.904373 3.536560 -25.598701
v -170.904373 3.536560 -21.926567
v -170.864243 3.609551 -21.967932
v -170.864243 3.609551 -25.557337
v -169.360733 5.397844 -23.556654
v -171.389908 1.748267 -21.496111
v -169.443832 5.397844 -24.073618
v -166.734634 1.748267 -26.080799
v -170.948166 3.573055 -25.533501
v -166.786758 1.748267 -26.030210
v -170.959457 3.536560 -25.544447
v -170.918091 3.609551 -25.504303
v -171.512131 1.748267 -26.080799
v -168.802933 5.397844 -24.073618
v -167.298599 3.573055 -25.533501
v -171.460007 1.748267 -26.030210
v -167.287308 3.536560 -25.544447
v -167.328674 3.609551 -25.504303
v -171.389908 1.748267 -26.030210
v -169.360733 5.397844 -23.968760
v -168.812393 5.397844 -24.083088
v -166.805222 1.748267 -21.373882
v -167.352524 3.573055 -25.587423
v -166.855804 1.748267 -21.426012
v -167.341568 3.536560 -25.598701
v -167.381714 3.609551 -25.557337
v -168.885880 5.397844 -23.556654
v -166.805222 1.748267 -26.151386
v -168.812393 5.397844 -23.442181
v -167.352524 3.573055 -21.937845
v -166.855804 1.748267 -26.099257
v -167.341568 3.536560 -21.926567
v -167.381714 3.609551 -21.967932
v -166.855804 1.748267 -21.496111
v -168.885880 5.397844 -23.968760
v -166.855804 1.748267 -26.030210
v -169.465942 5.371020 -23.420067
v -169.465942 5.371020 -24.105202
v -168.780823 5.371020 -24.105202
v -168.780823 5.371020 -23.420067
v -168.780823 5.371020 -23.430344
v -169.465942 5.371020 -23.430344
v -169.455673 5.371020 -23.420067
v -169.455673 5.371020 -24.105202
v -168.780823 5.371019 -24.095079
v -169.465942 5.371019 -24.095079
v -168.790939 5.371019 -23.420067
v -168.790939 5.371019 -24.105202
v -169.360733 4.192553 -23.968760
v -169.360733 4.192553 -23.556654
v -168.885880 4.192553 -23.556654
v -168.885880 4.192553 -23.968760
vt 0.623162 0.246306
vt 0.625000 0.246306
vt 0.625000 0.250000
vt 0.623163 0.250000
vt 0.623163 0.496306
vt 0.625000 0.496306
vt 0.625000 0.500000
vt 0.623163 0.500000
vt 0.623163 0.746250
vt 0.625000 0.746250
vt 0.625000 0.750000
vt 0.623163 0.750000
vt 0.623163 0.996250
vt 0.625000 0.996250
vt 0.625000 1.000000
vt 0.623163 1.000000
vt 0.368659 0.743604
vt 0.372272 0.743604
vt 0.372272 0.747272
vt 0.368659 0.747272
vt 0.871250 0.746250
vt 0.875000 0.746250
vt 0.875000 0.750000
vt 0.871250 0.750000
vt 0.497500 0.996250
vt 0.500000 0.996250
vt 0.500000 1.000000
vt 0.497500 1.000000
vt 0.497500 0.746250
vt 0.500000 0.746250
vt 0.500000 0.750000
vt 0.497500 0.750000
vt 0.497500 0.496306
vt 0.500000 0.496306
vt 0.500000 0.500000
vt 0.497500 0.500000
vt 0.497500 0.246306
vt 0.500000 0.246306
vt 0.500000 0.250000
vt 0.497500 0.250000
vt 0.127728 0.743604
vt 0.127728 0.747272
vt 0.125000 0.750000
vt 0.125000 0.746250
vt 0.131396 0.502728
vt 0.127728 0.502728
vt 0.125000 0.500000
vt 0.128750 0.500000
vt 0.372272 0.506341
vt 0.372272 0.502728
vt 0.375000 0.500000
vt 0.375000 0.503694
vt 0.375000 0.750000
vt 0.371306 0.750000
vt 0.375000 0.246306
vt 0.375000 0.250000
vt 0.375000 0.496306
vt 0.375000 0.746250
vt 0.375000 0.996250
vt 0.375000 1.000000
vt 0.502500 0.996250
vt 0.502500 1.000000
vt 0.502500 0.746250
vt 0.502500 0.750000
vt 0.502500 0.496306
vt 0.502500 0.500000
vt 0.502500 0.246306
vt 0.502500 0.250000
vt 0.500000 0.000000
vt 0.502500 0.000000
vt 0.502500 0.003750
vt 0.500000 0.003750
vt 0.500000 0.503694
vt 0.502500 0.503694
vt 0.497500 0.503694
vt 0.375000 0.000000
vt 0.497500 0.000000
vt 0.497500 0.003750
vt 0.375000 0.003750
vt 0.127728 0.506341
vt 0.125000 0.503694
vt 0.871250 0.503694
vt 0.875000 0.503694
vt 0.368659 0.506341
vt 0.623163 0.503694
vt 0.625000 0.503694
vt 0.623163 0.000000
vt 0.625000 0.000000
vt 0.625000 0.003750
vt 0.623163 0.003750
vt 0.131396 0.506341
vt 0.131396 0.743604
vt 0.628694 0.746250
vt 0.628694 0.503694
vt 0.628694 0.503694
vt 0.628694 0.746250
vt 0.502500 0.253750
vt 0.500000 0.253750
vt 0.500000 0.753694
vt 0.502500 0.753694
vt 0.375000 0.753694
vt 0.497500 0.753694
vt 0.497500 0.253750
vt 0.375000 0.253750
vt 0.131396 0.747272
vt 0.128750 0.750000
vt 0.368659 0.502728
vt 0.371306 0.500000
vt 0.628694 0.750000
vt 0.623163 0.753694
vt 0.625000 0.753694
vt 0.625000 0.253750
vt 0.623163 0.253750
vt 0.628694 0.500000
vt 0.871250 0.500000
vt 0.875000 0.500000
vt 0.871250 0.503694
vt 0.871250 0.746250
vn -0.7715 0.6362 0.0000
vn 0.0000 0.6362 -0.7716
vn 0.7718 0.6359 0.0000
vn 0.0000 0.6361 0.7716
vn 0.0000 -1.0000 0.0000
vn 0.0000 1.0000 0.0000
vn 0.0000 0.2953 0.9554
vn 0.9553 0.2957 0.0000
vn 0.0000 0.2952 -0.9554
vn -0.9552 0.2959 0.0000
vn -0.9554 0.2953 0.0000
vn 0.0000 0.2953 -0.9554
vn 0.9554 0.2953 0.0000
vn 0.0000 0.6360 0.7717
vn 0.7717 0.6360 0.0000
vn -0.7717 0.6360 0.0000
vn 0.7716 0.6361 0.0000
vn -0.9555 0.2951 0.0000
vn -0.7718 0.6359 0.0000
vn -1.0000 0.0000 0.0000
vn 0.0000 0.6360 -0.7717
vn 0.0000 0.2952 0.9554
vn 0.0000 0.6361 -0.7716
vn 0.7715 0.6362 0.0000
vn 0.9554 0.2954 0.0000
vn 0.9554 0.2952 0.0000
vn -0.7716 0.6361 0.0000
vn -0.0002 0.6362 0.7716
vn 0.0000 0.6362 0.7716
vn 0.0000 0.6362 0.7715
vn 0.0000 0.6362 -0.7715
vn 1.0000 0.0000 0.0000
vn 0.0000 0.0000 1.0000
vn 0.0000 0.0000 -1.0000
usemtl None
s off
f 90/1/1 51/2/1 4/3/1 82/4/1
f 92/5/2 65/6/2 8/7/2 83/8/2
f 85/9/3 28/10/3 6/11/3 84/12/3
f 87/13/4 40/14/4 2/15/4 81/16/4
f 78/17/5 32/18/5 5/19/5 68/20/5
f 49/21/6 26/22/6 2/23/6 40/24/6
f 46/25/7 41/26/7 9/27/7 20/28/7
f 34/29/8 29/30/8 12/31/8 19/32/8
f 69/33/9 67/34/9 11/35/9 18/36/9
f 55/37/10 53/38/10 10/39/10 17/40/10
f 31/41/5 1/42/5 14/43/5 25/44/5
f 43/45/5 3/46/5 13/47/5 37/48/5
f 54/49/5 7/50/5 15/51/5 52/52/5
f 68/20/5 5/19/5 16/53/5 66/54/5
f 57/55/11 55/37/11 17/40/11 13/56/11
f 72/57/12 69/33/12 18/36/12 15/51/12
f 27/58/13 34/29/13 19/32/13 16/53/13
f 39/59/7 46/25/7 20/28/7 14/60/7
f 41/26/14 47/61/14 21/62/14 9/27/14
f 29/30/15 35/63/15 24/64/15 12/31/15
f 67/34/2 70/65/2 23/66/2 11/35/2
f 53/38/16 56/67/16 22/68/16 10/39/16
f 9/69/16 21/70/16 36/71/16 30/72/16
f 59/73/17 62/74/17 35/63/17 29/30/17
f 52/52/13 61/75/13 34/29/13 27/58/13
f 14/76/11 20/77/11 33/78/11 25/79/11
f 5/19/5 32/18/5 27/58/5 16/53/5
f 60/80/5 31/41/5 25/44/5 57/81/5
f 20/77/18 9/69/18 30/72/18 33/78/18
f 61/75/8 59/73/8 29/30/8 34/29/8
f 64/82/6 51/83/6 26/22/6 49/21/6
f 80/84/5 54/49/5 32/18/5 78/17/5
f 89/85/17 58/86/17 28/10/17 85/9/17
f 81/87/19 2/88/19 26/89/19 86/90/19
f 60/80/5 63/91/5 50/92/5 31/41/5
f 71/93/20 79/94/20 96/95/20 95/96/20
f 10/39/21 22/68/21 48/97/21 42/98/21
f 74/99/4 77/100/4 47/61/4 41/26/4
f 66/101/7 76/102/7 46/25/7 39/59/7
f 13/56/12 17/40/12 45/103/12 37/104/12
f 1/42/5 44/105/5 39/106/5 14/43/5
f 75/107/5 43/45/5 37/48/5 72/108/5
f 17/40/12 10/39/12 42/98/12 45/103/12
f 76/102/22 74/99/22 41/26/22 46/25/22
f 71/93/6 49/21/6 40/24/6 73/109/6
f 31/41/5 50/92/5 44/105/5 1/42/5
f 91/110/4 73/111/4 40/14/4 87/13/4
f 82/4/23 4/3/23 38/112/23 88/113/23
f 65/114/6 38/115/6 64/82/6 79/94/6
f 3/46/5 43/45/5 63/91/5 60/80/5
f 83/8/24 8/7/24 58/86/24 89/85/24
f 75/107/5 7/50/5 54/49/5 80/84/5
f 38/115/6 4/116/6 51/83/6 64/82/6
f 18/36/25 11/35/25 59/73/25 61/75/25
f 3/46/5 60/80/5 57/81/5 13/47/5
f 15/51/26 18/36/26 61/75/26 52/52/26
f 11/35/24 23/66/24 62/74/24 59/73/24
f 30/72/27 36/71/27 56/67/27 53/38/27
f 25/79/11 33/78/11 55/37/11 57/55/11
f 32/18/5 54/49/5 52/52/5 27/58/5
f 33/78/11 30/72/11 53/38/11 55/37/11
f 86/90/27 26/89/27 51/2/27 90/1/27
f 43/45/5 75/107/5 80/84/5 63/91/5
f 8/7/6 65/114/6 79/94/6 58/86/6
f 84/12/28 6/11/28 73/111/28 91/110/28
f 28/10/6 71/93/6 73/109/6 6/11/6
f 19/32/22 12/31/22 74/99/22 76/102/22
f 7/50/5 75/107/5 72/108/5 15/51/5
f 16/53/7 19/32/7 76/102/7 66/101/7
f 12/31/29 24/64/29 77/100/29 74/99/29
f 58/86/6 79/94/6 71/93/6 28/10/6
f 63/91/5 80/84/5 78/17/5 50/92/5
f 42/98/23 48/97/23 70/65/23 67/34/23
f 37/104/12 45/103/12 69/33/12 72/57/12
f 44/105/5 68/20/5 66/54/5 39/106/5
f 45/103/9 42/98/9 67/34/9 69/33/9
f 50/92/5 78/17/5 68/20/5 44/105/5
f 88/113/23 38/112/23 65/6/23 92/5/23
f 48/97/23 88/113/23 92/5/23 70/65/23
f 24/64/30 84/12/30 91/110/30 77/100/30
f 36/71/27 86/90/27 90/1/27 56/67/27
f 23/66/17 83/8/17 89/85/17 62/74/17
f 22/68/23 82/4/23 88/113/23 48/97/23
f 77/100/4 91/110/4 87/13/4 47/61/4
f 21/70/1 81/87/1 86/90/1 36/71/1
f 62/74/17 89/85/17 85/9/17 35/63/17
f 47/61/4 87/13/4 81/16/4 21/62/4
f 35/63/17 85/9/17 84/12/17 24/64/17
f 70/65/31 92/5/31 83/8/31 23/66/31
f 56/67/27 90/1/27 82/4/27 22/68/27
f 96/95/6 93/117/6 94/118/6 95/96/6
f 64/82/32 49/21/32 94/118/32 93/117/32
f 79/94/33 64/82/33 93/117/33 96/95/33
f 49/21/34 71/93/34 95/96/34 94/118/34
